/* XPM */
static char *_82f8d1dae6248e59fdbb55830825d9dZp5K5ZDjPjRlyGR6[] = {
/* columns rows colors chars-per-pixel */
"64 64 5 1 ",
"  c None",
". c #352B26",
"X c #864646",
"o c #B56B5F",
"O c #E7B09C",
/* pixels */
"        ................................................        ",
"        ................................................        ",
"        ................................................        ",
"        ................................................        ",
"    ....OOOOOOOOOOOOOOOOOOOOOOOOOOOOOOOOOOOOOOOOOOOOOOOO....    ",
"    ....OOOOOOOOOOOOOOOOOOOOOOOOOOOOOOOOOOOOOOOOOOOOOOOO....    ",
"    ....OOOOOOOOOOOOOOOOOOOOOOOOOOOOOOOOOOOOOOOOOOOOOOOO....    ",
"    ....OOOOOOOOOOOOOOOOOOOOOOOOOOOOOOOOOOOOOOOOOOOOOOOO....    ",
"....OOOOOOOOOOOOoooooooooooo........ooooooooooooOOOOOOOOOOOO....",
"....OOOOOOOOOOOOoooooooooooo........ooooooooooooOOOOOOOOOOOO....",
"....OOOOOOOOOOOOoooooooooooo........ooooooooooooOOOOOOOOOOOO....",
"....OOOOOOOOOOOOoooooooooooo........ooooooooooooOOOOOOOOOOOO....",
"....OOOOOOOOoooooooooooo....OOOOOOOO....ooooooooooooOOOOOOOO....",
"....OOOOOOOOoooooooooooo....OOOOOOOO....ooooooooooooOOOOOOOO....",
"....OOOOOOOOoooooooooooo....OOOOOOOO....ooooooooooooOOOOOOOO....",
"....OOOOOOOOoooooooooooo....OOOOOOOO....ooooooooooooOOOOOOOO....",
"....OOOOoooooooooooooooo....OOOOOOOO....ooooooooooooooooOOOO....",
"....OOOOoooooooooooooooo....OOOOOOOO....ooooooooooooooooOOOO....",
"....OOOOoooooooooooooooo....OOOOOOOO....ooooooooooooooooOOOO....",
"....OOOOoooooooooooooooo....OOOOOOOO....ooooooooooooooooOOOO....",
"....OOOOoooooooooooooooo....OOOOOOOO....ooooooooooooooooOOOO....",
"....OOOOoooooooooooooooo....OOOOOOOO....ooooooooooooooooOOOO....",
"....OOOOoooooooooooooooo....OOOOOOOO....ooooooooooooooooOOOO....",
"....OOOOoooooooooooooooo....OOOOOOOO....ooooooooooooooooOOOO....",
"....OOOOoooooooooooooooo....OOOOOOOO....ooooooooooooooooOOOO....",
"....OOOOoooooooooooooooo....OOOOOOOO....ooooooooooooooooOOOO....",
"....OOOOoooooooooooooooo....OOOOOOOO....ooooooooooooooooOOOO....",
"....OOOOoooooooooooooooo....OOOOOOOO....ooooooooooooooooOOOO....",
"....OOOOoooooooooooooooo....OOOOOOOO....ooooooooooooooooOOOO....",
"....OOOOoooooooooooooooo....OOOOOOOO....ooooooooooooooooOOOO....",
"....OOOOoooooooooooooooo....OOOOOOOO....ooooooooooooooooOOOO....",
"....OOOOoooooooooooooooo....OOOOOOOO....ooooooooooooooooOOOO....",
"....XXXXoooooooooooooooooooo........ooooooooooooooooooooXXXX....",
"....XXXXoooooooooooooooooooo........ooooooooooooooooooooXXXX....",
"....XXXXoooooooooooooooooooo........ooooooooooooooooooooXXXX....",
"....XXXXoooooooooooooooooooo........ooooooooooooooooooooXXXX....",
"....XXXXooooooooooooooooooooooooooooooooooooooooooooooooXXXX....",
"....XXXXooooooooooooooooooooooooooooooooooooooooooooooooXXXX....",
"....XXXXooooooooooooooooooooooooooooooooooooooooooooooooXXXX....",
"....XXXXooooooooooooooooooooooooooooooooooooooooooooooooXXXX....",
"....XXXXoooooooooooooooooooo........ooooooooooooooooooooXXXX....",
"....XXXXoooooooooooooooooooo........ooooooooooooooooooooXXXX....",
"....XXXXoooooooooooooooooooo........ooooooooooooooooooooXXXX....",
"....XXXXoooooooooooooooooooo........ooooooooooooooooooooXXXX....",
"....XXXXoooooooooooooooo....OOOOOOOO....ooooooooooooooooXXXX....",
"....XXXXoooooooooooooooo....OOOOOOOO....ooooooooooooooooXXXX....",
"....XXXXoooooooooooooooo....OOOOOOOO....ooooooooooooooooXXXX....",
"....XXXXoooooooooooooooo....OOOOOOOO....ooooooooooooooooXXXX....",
"....XXXXoooooooooooooooo....OOOOOOOO....ooooooooooooooooXXXX....",
"....XXXXoooooooooooooooo....OOOOOOOO....ooooooooooooooooXXXX....",
"....XXXXoooooooooooooooo....OOOOOOOO....ooooooooooooooooXXXX....",
"....XXXXoooooooooooooooo....OOOOOOOO....ooooooooooooooooXXXX....",
"....XXXXXXXXoooooooooooooooo........ooooooooooooooooXXXXXXXX....",
"....XXXXXXXXoooooooooooooooo........ooooooooooooooooXXXXXXXX....",
"....XXXXXXXXoooooooooooooooo........ooooooooooooooooXXXXXXXX....",
"....XXXXXXXXoooooooooooooooo........ooooooooooooooooXXXXXXXX....",
"    ....XXXXXXXXXXXXXXXXXXXXXXXXXXXXXXXXXXXXXXXXXXXXXXXX....    ",
"    ....XXXXXXXXXXXXXXXXXXXXXXXXXXXXXXXXXXXXXXXXXXXXXXXX....    ",
"    ....XXXXXXXXXXXXXXXXXXXXXXXXXXXXXXXXXXXXXXXXXXXXXXXX....    ",
"    ....XXXXXXXXXXXXXXXXXXXXXXXXXXXXXXXXXXXXXXXXXXXXXXXX....    ",
"        ................................................        ",
"        ................................................        ",
"        ................................................        ",
"        ................................................        "
};
