/* XPM */
static char *_e006a9e3ca04da8e75b8f00c51d82cfmqwjjFgil1AXggli[] = {
/* columns rows colors chars-per-pixel */
"64 64 5 1 ",
"  c None",
". c #351424",
"X c #864646",
"o c #B56B5F",
"O c #E7B09C",
/* pixels */
"        ................................................        ",
"        ................................................        ",
"        ................................................        ",
"        ................................................        ",
"    ....OOOOOOOOOOOOOOOOOOOOOOOOOOOOOOOOOOOOOOOOOOOOOOOO....    ",
"    ....OOOOOOOOOOOOOOOOOOOOOOOOOOOOOOOOOOOOOOOOOOOOOOOO....    ",
"    ....OOOOOOOOOOOOOOOOOOOOOOOOOOOOOOOOOOOOOOOOOOOOOOOO....    ",
"    ....OOOOOOOOOOOOOOOOOOOOOOOOOOOOOOOOOOOOOOOOOOOOOOOO....    ",
"....OOOOOOOOOOOOooooOOOOOOOOOOOOooooooooooooooooOOOOOOOOOOOO....",
"....OOOOOOOOOOOOooooOOOOOOOOOOOOooooooooooooooooOOOOOOOOOOOO....",
"....OOOOOOOOOOOOooooOOOOOOOOOOOOooooooooooooooooOOOOOOOOOOOO....",
"....OOOOOOOOOOOOooooOOOOOOOOOOOOooooooooooooooooOOOOOOOOOOOO....",
"....OOOOOOOOooooooooOOOOOOOOOOOOooooooooooooooooooooOOOOOOOO....",
"....OOOOOOOOooooooooOOOOOOOOOOOOooooooooooooooooooooOOOOOOOO....",
"....OOOOOOOOooooooooOOOOOOOOOOOOooooooooooooooooooooOOOOOOOO....",
"....OOOOOOOOooooooooOOOOOOOOOOOOooooooooooooooooooooOOOOOOOO....",
"....OOOOooooooooooooOOOOOOOOOOOOooooOOOOOOOOooooooooooooOOOO....",
"....OOOOooooooooooooOOOOOOOOOOOOooooOOOOOOOOooooooooooooOOOO....",
"....OOOOooooooooooooOOOOOOOOOOOOooooOOOOOOOOooooooooooooOOOO....",
"....OOOOooooooooooooOOOOOOOOOOOOooooOOOOOOOOooooooooooooOOOO....",
"....OOOOooooOOOOooooooooooooooooooooOOOOOOOOooooooooooooOOOO....",
"....OOOOooooOOOOooooooooooooooooooooOOOOOOOOooooooooooooOOOO....",
"....OOOOooooOOOOooooooooooooooooooooOOOOOOOOooooooooooooOOOO....",
"....OOOOooooOOOOooooooooooooooooooooOOOOOOOOooooooooooooOOOO....",
"....OOOOooooooooooooooooooooooooooooooooooooooooooooooooOOOO....",
"....OOOOooooooooooooooooooooooooooooooooooooooooooooooooOOOO....",
"....OOOOooooooooooooooooooooooooooooooooooooooooooooooooOOOO....",
"....OOOOooooooooooooooooooooooooooooooooooooooooooooooooOOOO....",
"....OOOOooooooooXXXXXXXXooooooooooooooooooooooooOOOOooooOOOO....",
"....OOOOooooooooXXXXXXXXooooooooooooooooooooooooOOOOooooOOOO....",
"....OOOOooooooooXXXXXXXXooooooooooooooooooooooooOOOOooooOOOO....",
"....OOOOooooooooXXXXXXXXooooooooooooooooooooooooOOOOooooOOOO....",
"....XXXXooooooooXXXXXXXXooooOOOOOOOOooooooooooooooooooooXXXX....",
"....XXXXooooooooXXXXXXXXooooOOOOOOOOooooooooooooooooooooXXXX....",
"....XXXXooooooooXXXXXXXXooooOOOOOOOOooooooooooooooooooooXXXX....",
"....XXXXooooooooXXXXXXXXooooOOOOOOOOooooooooooooooooooooXXXX....",
"....XXXXooooooooooooooooooooOOOOOOOOooooooooooooooooooooXXXX....",
"....XXXXooooooooooooooooooooOOOOOOOOooooooooooooooooooooXXXX....",
"....XXXXooooooooooooooooooooOOOOOOOOooooooooooooooooooooXXXX....",
"....XXXXooooooooooooooooooooOOOOOOOOooooooooooooooooooooXXXX....",
"....XXXXooooXXXXooooooooooooooooooooooooooooooooooooXXXXXXXX....",
"....XXXXooooXXXXooooooooooooooooooooooooooooooooooooXXXXXXXX....",
"....XXXXooooXXXXooooooooooooooooooooooooooooooooooooXXXXXXXX....",
"....XXXXooooXXXXooooooooooooooooooooooooooooooooooooXXXXXXXX....",
"....XXXXooooooooooooooooooooooooooooXXXXXXXXooooooooooooXXXX....",
"....XXXXooooooooooooooooooooooooooooXXXXXXXXooooooooooooXXXX....",
"....XXXXooooooooooooooooooooooooooooXXXXXXXXooooooooooooXXXX....",
"....XXXXooooooooooooooooooooooooooooXXXXXXXXooooooooooooXXXX....",
"....XXXXooooooooXXXXXXXXooooooooooooXXXXXXXXooooXXXXooooXXXX....",
"....XXXXooooooooXXXXXXXXooooooooooooXXXXXXXXooooXXXXooooXXXX....",
"....XXXXooooooooXXXXXXXXooooooooooooXXXXXXXXooooXXXXooooXXXX....",
"....XXXXooooooooXXXXXXXXooooooooooooXXXXXXXXooooXXXXooooXXXX....",
"....XXXXooooooooXXXXXXXXooooooooooooooooooooooooooooooooXXXX....",
"....XXXXooooooooXXXXXXXXooooooooooooooooooooooooooooooooXXXX....",
"....XXXXooooooooXXXXXXXXooooooooooooooooooooooooooooooooXXXX....",
"....XXXXooooooooXXXXXXXXooooooooooooooooooooooooooooooooXXXX....",
"    ....XXXXXXXXXXXXXXXXXXXXXXXXXXXXXXXXXXXXXXXXXXXXXXXX....    ",
"    ....XXXXXXXXXXXXXXXXXXXXXXXXXXXXXXXXXXXXXXXXXXXXXXXX....    ",
"    ....XXXXXXXXXXXXXXXXXXXXXXXXXXXXXXXXXXXXXXXXXXXXXXXX....    ",
"    ....XXXXXXXXXXXXXXXXXXXXXXXXXXXXXXXXXXXXXXXXXXXXXXXX....    ",
"        ................................................        ",
"        ................................................        ",
"        ................................................        ",
"        ................................................        "
};
