/* XPM */
static char *_be92b248a4949e8dd8a09c070a1faaeCneFpMzejwEubER5[] = {
/* columns rows colors chars-per-pixel */
"64 64 12 1 ",
"  c None",
". c #120C0A",
"X c #351424",
"o c #FA5F00",
"O c #864646",
"+ c #997D57",
"@ c #B56B5F",
"# c #F99C0B",
"$ c #FFD233",
"% c #C3AA83",
"& c #E7B09C",
"* c #E2CFA4",
/* pixels */
"        XXXXXXXXXXXXXXXXXXXXXXXXXXXXXXXXXXXXXXXXXXXXXXXX        ",
"        XXXXXXXXXXXXXXXXXXXXXXXXXXXXXXXXXXXXXXXXXXXXXXXX        ",
"        XXXXXXXXXXXXXXXXXXXXXXXXXXXXXXXXXXXXXXXXXXXXXXXX        ",
"        XXXXXXXXXXXXXXXXXXXXXXXXXXXXXXXXXXXXXXXXXXXXXXXX        ",
"    XXXX&&&&&&&&&&&&&&&&&&&&&&&&&&&&&&&&&&&&&&&&&&&&&&&&XXXX    ",
"    XXXX&&&&&&&&&&&&&&&&&&&&&&&&&&&&&&&&&&&&&&&&&&&&&&&&XXXX    ",
"    XXXX&&&&&&&&&&&&&&&&&&&&&&&&&&&&&&&&&&&&&&&&&&&&&&&&XXXX    ",
"    XXXX&&&&&&&&&&&&&&&&&&&&&&&&&&&&&&&&&&&&&&&&&&&&&&&&XXXX    ",
"XXXX&&&&&&&&&&&&@@@@&&&&&&&&&&&&@@@@@@@@@@@@@@@@&&&&&&&&&&&&XXXX",
"XXXX&&&&&&&&&&&&@@@@&&&&&&&&&&&&@@@@@@@@@@@@@@@@&&&&&&&&&&&&XXXX",
"XXXX&&&&&&&&&&&&@@@@........................@@@@&&&&&&&&&&&&XXXX",
"XXXX&&&&&&&&&&&&@@@@........................@@@@&&&&&&&&&&&&XXXX",
"XXXX&&&&&&&&@@@@@@@@........................@@@@@@@@&&&&&&&&XXXX",
"XXXX&&&&&&&&@@@@@@@@........................@@@@@@@@&&&&&&&&XXXX",
"XXXX&&&&&&&&@@@@....$$$$$$$$$$$$$$$$oooooooo....@@@@&&&&&&&&XXXX",
"XXXX&&&&&&&&@@@@....$$$$$$$$$$$$$$$$oooooooo....@@@@&&&&&&&&XXXX",
"XXXX&&&&@@@@@@@@....$$$$$$$$$$$$$$$$oooooooo....@@@@@@@@&&&&XXXX",
"XXXX&&&&@@@@@@@@....$$$$$$$$$$$$$$$$oooooooo....@@@@@@@@&&&&XXXX",
"XXXX&&&&@@@@....$$$$####################oooooooo....@@@@&&&&XXXX",
"XXXX&&&&@@@@....$$$$####################oooooooo....@@@@&&&&XXXX",
"XXXX&&&&@@@@....$$$$####################oooooooo....@@@@&&&&XXXX",
"XXXX&&&&@@@@....$$$$####################oooooooo....@@@@&&&&XXXX",
"XXXX&&&&....$$$$########$$$$####$$$$$$$$####oooooooo....&&&&XXXX",
"XXXX&&&&....$$$$########$$$$####$$$$$$$$####oooooooo....&&&&XXXX",
"XXXX&&&&....$$$$########$$$$####$$$$$$$$####oooooooo....&&&&XXXX",
"XXXX&&&&....$$$$########$$$$####$$$$$$$$####oooooooo....&&&&XXXX",
"XXXX&&&&....$$$$################$$$$$$$$####oooooooo....&&&&XXXX",
"XXXX&&&&....$$$$################$$$$$$$$####oooooooo....&&&&XXXX",
"XXXX&&&&....$$$$################$$$$$$$$####oooooooo....&&&&XXXX",
"XXXX&&&&....$$$$################$$$$$$$$####oooooooo....&&&&XXXX",
"XXXX&&&&....$$$$########oooooooooooooooooooooooooooo....&&&&XXXX",
"XXXX&&&&....$$$$########oooooooooooooooooooooooooooo....&&&&XXXX",
"XXXXOOOO....$$$$########oooooooooooooooooooooooooooo....OOOOXXXX",
"XXXXOOOO....$$$$########oooooooooooooooooooooooooooo....OOOOXXXX",
"XXXXOOOO@@@@....$$$$oooooooooooooooooooooooooooo............XXXX",
"XXXXOOOO@@@@....$$$$oooooooooooooooooooooooooooo............XXXX",
"XXXXOOOO@@@@....$$$$oooooooooooooooooooooooooooo............XXXX",
"XXXXOOOO@@@@....$$$$oooooooooooooooooooooooooooo............XXXX",
"XXXXOOOO........................................########oooo....",
"XXXXOOOO........................................########oooo....",
"XXXXOOOO........................................########oooo....",
"XXXXOOOO........................................########oooo....",
"XXXX....$$$$####oooo....****%%%%++++++++....$$$$oooooooooooo....",
"XXXX....$$$$####oooo....****%%%%++++++++....$$$$oooooooooooo....",
"XXXX....$$$$####oooo....****%%%%++++++++....$$$$oooooooooooo....",
"XXXX....$$$$####oooo....****%%%%++++++++....$$$$oooooooooooo....",
"XXXX....oooooooooooo....****%%%%%%%%++++........%%%%++++....XXXX",
"XXXX....oooooooooooo....****%%%%%%%%++++........%%%%++++....XXXX",
"XXXX....oooooooooooo....****%%%%%%%%++++........%%%%++++....XXXX",
"XXXX....oooooooooooo....****%%%%%%%%++++........%%%%++++....XXXX",
"XXXXOOOO....****....OOOO....++++++++....OOOO....%%%%++++....XXXX",
"XXXXOOOO....****....OOOO....++++++++....OOOO....%%%%++++....XXXX",
"XXXXOOOO....****....OOOO....++++++++....@@@@....%%%%++++....XXXX",
"XXXXOOOO....****....OOOO....++++++++....@@@@....%%%%++++....XXXX",
"XXXXOOOO@@@@@@@@OOOOOOOO@@@@@@@@@@@@@@@@@@@@@@@@@@@@@@@@OOOOXXXX",
"XXXXOOOO@@@@@@@@OOOOOOOO@@@@@@@@@@@@@@@@@@@@@@@@@@@@@@@@OOOOXXXX",
"    XXXXOOOOOOOOOOOOOOOOOOOOOOOOOOOOOOOOOOOOOOOOOOOOOOOOXXXX    ",
"    XXXXOOOOOOOOOOOOOOOOOOOOOOOOOOOOOOOOOOOOOOOOOOOOOOOOXXXX    ",
"    XXXXOOOOOOOOOOOOOOOOOOOOOOOOOOOOOOOOOOOOOOOOOOOOOOOOXXXX    ",
"    XXXXOOOOOOOOOOOOOOOOOOOOOOOOOOOOOOOOOOOOOOOOOOOOOOOOXXXX    ",
"        XXXXXXXXXXXXXXXXXXXXXXXXXXXXXXXXXXXXXXXXXXXXXXXX        ",
"        XXXXXXXXXXXXXXXXXXXXXXXXXXXXXXXXXXXXXXXXXXXXXXXX        ",
"        XXXXXXXXXXXXXXXXXXXXXXXXXXXXXXXXXXXXXXXXXXXXXXXX        ",
"        XXXXXXXXXXXXXXXXXXXXXXXXXXXXXXXXXXXXXXXXXXXXXXXX        "
};
