/* XPM */
static char *_5aea275ae9248a8e32ab33965adf86aD51inasXqRpXhbDJ[] = {
/* columns rows colors chars-per-pixel */
"64 64 64 1 ",
"  c None",
". c #1B1B1B",
"X c #35261B",
"o c #37351B",
"O c #351424",
"+ c #282020",
"@ c #2E2423",
"# c #362525",
"$ c #342D2B",
"% c #3F2929",
"& c #50311B",
"* c #462C24",
"= c #412F2C",
"- c #51342A",
"; c #4F3632",
": c #54501B",
"> c #66471B",
", c #5B5121",
"< c #784040",
"1 c #7B4141",
"2 c #AB561C",
"3 c #BC5D1B",
"4 c #C2601B",
"5 c #D7681B",
"6 c #F2741B",
"7 c #F27B1B",
"8 c #F37E1B",
"9 c #864646",
"0 c #875247",
"q c #875647",
"w c #8E564D",
"e c #93594F",
"r c #A26156",
"t c #A66358",
"y c #B0685C",
"u c #B56B5F",
"i c #B5AA1D",
"p c #F4881B",
"a c #F48D1B",
"s c #F58F1B",
"d c #C6BC1B",
"f c #F2B11B",
"g c #F8B01B",
"h c #F9B21B",
"j c #F9B61B",
"k c #F9BA1B",
"l c #FABC1B",
"z c #FAC11B",
"x c #FBC41B",
"c c #FBC51B",
"v c #FBC81B",
"b c #FBC91B",
"n c #FBCE1B",
"m c #FCCF1B",
"M c #E2D71B",
"N c #E9DD1B",
"B c #FDE21B",
"V c #FDE31B",
"C c #FEE61B",
"Z c #FEE71B",
"A c #FEEC1B",
"S c #FFF21B",
"D c #B48A7B",
"F c #E7B09C",
/* pixels */
"        OOOOOOOOOOOOOOOOOOOOOOOOOOOOOOOOOOOOOOOOOOOOOOOO        ",
"        OOOOOOOOOOOOOOOOOOOOOOOOOOOOOOOOOOOOOOOOOOOOOOOO        ",
"        OOOOOOOOOOOOOOOOOOOOOOOOOOOOOOOOOOOOOOOOOOOOOOOO        ",
"        OOOOOOOOOOOOOOOOOOOOOOOOOOOOOOOOOOOOOOOOOOOOOOOO        ",
"    OOOOFFFFFFFFFFFFFFFFFFFFFFFFFFFFFFFFFFFFFFFFFFFFFFFFOOOO    ",
"    OOOOFFFFFFFFFFFFFFFFFFFFFFFFFFFFFFFFFFFFFFFFFFFFFFFFOOOO    ",
"    OOOOFFFFFFFFFFFFFFFFFFFFFFFFFFFFFFFFFFFFFFFFFFFFFFFFOOOO    ",
"    OOOOFFFFFFFFFFFFFFFFFFFFFFFFFFFFFFFFFFFFFFFFFFFFFFFFOOOO    ",
"OOOOFFFFFFFFFFFFuuuuFFFFFFFFFFFFuuuuuuuuuuuuuuuuFFFFFFFFFFFFOOOO",
"OOOOFFFFFFFFFFFFuuuuFFFFFFFFFFFFuuuuuuuuuuuuuuuuFFFFFFFFFFFFOOOO",
"OOOOFFFFFFFFFFFFuuuuFFFFFFFFFFFFuuuuuuuuuuuuuuuuFFFFFFFFFFFFOOOO",
"OOOOFFFFFFFFFFFFuuuyDDDDDDDDDDDDwwwwwwwwwwweuuuuFFFFFFFFFFFFOOOO",
"OOOOFFFFFFFFuuuuuuur.......................@uuuuuuuuFFFFFFFFOOOO",
"OOOOFFFFFFFFuuuuuuur.......................@uuuuuuuuFFFFFFFFOOOO",
"OOOOFFFFFFFFuuuuuuur.......................@uuuuuuuuFFFFFFFFOOOO",
"OOOOFFFFFFFFuuuywwwq:::::::::::::::::::::::,wwweuuuuFFFFFFFFOOOO",
"OOOOFFFFuuuuuuur...oSSSSSSSSSSSSSSSSSSSSSSSM...@uuuuuuuuFFFFOOOO",
"OOOOFFFFuuuuuuur...oSSSSSSSSSSSSSSSSSSSSSSSM...@uuuuuuuuFFFFOOOO",
"OOOOFFFFuuuuuuur...oSSSSSSSSSSSSSSSSSSSSSSSM...@uuuuuuuuFFFFOOOO",
"OOOOFFFFuuuywww0&&&>CCCCCCCCCCCCCCCCCCCCSSSN:::,wwweuuuuFFFFOOOO",
"OOOOFFFFuuur...X6668xxxxxxxxxxxxxxxxxxxbSSSSSSSM...@uuuuFFFFOOOO",
"OOOOFFFFuuur...X6668xxxxxxxxxxxxxxxxxxxbSSSSSSSM...@uuuuFFFFOOOO",
"OOOOFFFFuuur...X6668xxxxxxxxxxxxxxxxxxxbSSSSSSSM...@uuuuFFFFOOOO",
"OOOOFFFFuuur...X6668xxxxxxxxmmmmmmmnxxxbCCCCSSSM...@uuuuFFFFOOOO",
"OOOOFFFFuuur...X6668xxxxxxxbSSSSSSSAxxxxxxxbSSSM...@uuuuFFFFOOOO",
"OOOOFFFFuuur...X6668xxxxxxxbSSSSSSSAxxxxxxxbSSSM...@uuuuFFFFOOOO",
"OOOOFFFFuuur...X6668xxxxxxxbSSSSSSSAxxxxxxxbSSSM...@uuuuFFFFOOOO",
"OOOOFFFFuuur...X6668xxxzgggjCCCCCCCBmmmnxxxbSSSM...@uuuuFFFFOOOO",
"OOOOFFFFuuur...X6668xxxk6668xxxxxxxbSSSAxxxbSSSM...$uuuuFFFFOOOO",
"OOOOFFFFuuur...X6668xxxk6668xxxxxxxbSSSAxxxbSSSM...$uuuuFFFFOOOO",
"OOOOFFFFuuur...X6668xxxk6668xxxxxxxbSSSAxxxbSSSM...$uuuuFFFFOOOO",
"OOOOFFFFuuur...X6668xxxk6668xxxxxxxbSSSAxxxbSSSM...$uuuuFFFFOOOO",
"OOOO9999uuur...X6668xxxk6668xxxxxxxbSSSAxxxbSSSM...@uuuu9999OOOO",
"OOOO9999uuur...X6668xxxk6668xxxxxxxbSSSAxxxbSSSM...@uuuu9999OOOO",
"OOOO9999uuur...X6668xxxk6668xxxxxxxbSSSAxxxbSSSM...@uuuu9999OOOO",
"OOOO9999uuur...X6668xxxlpppagggggggjCCCBxxxbSSSM...@uuuu9999OOOO",
"OOOO9999uuur...X6668xxxxxxxk66666668xxxxxxxbSSSM...@uuuu9999OOOO",
"OOOO9999uuur...X6668xxxxxxxk66666668xxxxxxxbSSSM...@uuuu9999OOOO",
"OOOO9999uuur...X6668xxxxxxxk66666668xxxxxxxbSSSM...@uuuu9999OOOO",
"OOOO9999uuur...X6667ggggxxxlpppppppaxxxxxxxbSSSM...@uuuu9999OOOO",
"OOOO9999uuur...X66666668xxxxxxxxxxxxxxxxxxxbSSSM...@99999999OOOO",
"OOOO9999uuur...X66666668xxxxxxxxxxxxxxxxxxxbSSSM...@99999999OOOO",
"OOOO9999uuur...X66666668xxxxxxxxxxxxxxxxxxxbSSSM...@99999999OOOO",
"OOOO9999uuut###*33346667gggggggggggggggggggfdddi===;99999999OOOO",
"OOOO9999uuuuuuur...X666666666666666666666665...@uuuuuuuu9999OOOO",
"OOOO9999uuuuuuur...X666666666666666666666665...@uuuuuuuu9999OOOO",
"OOOO9999uuuuuuur...X666666666666666666666665...@uuuuuuuu9999OOOO",
"OOOO9999uuuuuuut===-333333333333333333333332===;uuuuuuuu9999OOOO",
"OOOO9999uuuuuuuu9991.......................+uuuu9999uuuu9999OOOO",
"OOOO9999uuuuuuuu9991.......................+uuuu9999uuuu9999OOOO",
"OOOO9999uuuuuuuu9991.......................+uuuu9999uuuu9999OOOO",
"OOOO9999uuuuuuuu9991####============#######%uuuu9999uuuu9999OOOO",
"OOOO9999uuuuuuuu99999999uuuuuuuuuuuuuuuuuuuuuuuuuuuuuuuu9999OOOO",
"OOOO9999uuuuuuuu99999999uuuuuuuuuuuuuuuuuuuuuuuuuuuuuuuu9999OOOO",
"OOOO9999uuuuuuuu99999999uuuuuuuuuuuuuuuuuuuuuuuuuuuuuuuu9999OOOO",
"OOOO9999uuuuuuuu99999999uuuuuuuuuuuuuuuuuuuuuuuuuuuuuuuu9999OOOO",
"    OOOO999999999999999999999999999999999999999999999999OOOO    ",
"    OOOO999999999999999999999999999999999999999999999999OOOO    ",
"    OOOO999999999999999999999999999999999999999999999999OOOO    ",
"    OOOO999999999999999999999999999999999999999999999999OOOO    ",
"        OOOOOOOOOOOOOOOOOOOOOOOOOOOOOOOOOOOOOOOOOOOOOOOO        ",
"        OOOOOOOOOOOOOOOOOOOOOOOOOOOOOOOOOOOOOOOOOOOOOOOO        ",
"        OOOOOOOOOOOOOOOOOOOOOOOOOOOOOOOOOOOOOOOOOOOOOOOO        ",
"        OOOOOOOOOOOOOOOOOOOOOOOOOOOOOOOOOOOOOOOOOOOOOOOO        "
};
