/* XPM */
static char *_daf997d629f49c9d3f1ef4378d11980DDp5hgbnFyvt7VJr[] = {
/* columns rows colors chars-per-pixel */
"64 64 5 1 ",
"  c None",
". c #231C19",
"X c #67332D",
"o c #B66B3A",
"O c #D89E58",
/* pixels */
"        ................................................        ",
"        ................................................        ",
"        ................................................        ",
"        ................................................        ",
"    ....OOOOOOOOOOOOOOOOOOOOOOOOOOOOOOOOOOOOOOOOOOOOOOOO....    ",
"    ....OOOOOOOOOOOOOOOOOOOOOOOOOOOOOOOOOOOOOOOOOOOOOOOO....    ",
"    ....OOOOOOOOOOOOOOOOOOOOOOOOOOOOOOOOOOOOOOOOOOOOOOOO....    ",
"    ....OOOOOOOOOOOOOOOOOOOOOOOOOOOOOOOOOOOOOOOOOOOOOOOO....    ",
"....OOOOOOOOOOOOooooOOOOOOOOOOOOooooooooooooooooOOOOOOOOOOOO....",
"....OOOOOOOOOOOOooooOOOOOOOOOOOOooooooooooooooooOOOOOOOOOOOO....",
"....OOOOOOOOOOOOooooOOOOOOOOOOOOooooooooooooooooOOOOOOOOOOOO....",
"....OOOOOOOOOOOOooooOOOOOOOOOOOOooooooooooooooooOOOOOOOOOOOO....",
"....OOOOOOOOooooooooOOOOOOOOOOOOooooooooooooooooooooOOOOOOOO....",
"....OOOOOOOOooooooooOOOOOOOOOOOOooooooooooooooooooooOOOOOOOO....",
"....OOOOOOOOooooooooOOOOOOOOOOOOooooooooooooooooooooOOOOOOOO....",
"....OOOOOOOOooooooooOOOOOOOOOOOOooooooooooooooooooooOOOOOOOO....",
"....OOOOooooooooooooOOOOOOOOOOOOooooOOOOOOOOooooooooooooOOOO....",
"....OOOOooooooooooooOOOOOOOOOOOOooooOOOOOOOOooooooooooooOOOO....",
"....OOOOooooooooooooOOOOOOOOOOOOooooOOOOOOOOooooooooooooOOOO....",
"....OOOOooooooooooooOOOOOOOOOOOOooooOOOOOOOOooooooooooooOOOO....",
"....OOOOooooOOOOooooooooooooooooooooOOOOOOOOooooooooooooOOOO....",
"....OOOOooooOOOOooooooooooooooooooooOOOOOOOOooooooooooooOOOO....",
"....OOOOooooOOOOooooooooooooooooooooOOOOOOOOooooooooooooOOOO....",
"....OOOOooooOOOOooooooooooooooooooooOOOOOOOOooooooooooooOOOO....",
"....OOOOooooooooooooooooooooooooooooooooooooooooooooooooOOOO....",
"....OOOOooooooooooooooooooooooooooooooooooooooooooooooooOOOO....",
"....OOOOooooooooooooooooooooooooooooooooooooooooooooooooOOOO....",
"....OOOOooooooooooooooooooooooooooooooooooooooooooooooooOOOO....",
"....OOOOooooooooXXXXXXXXooooooooooooooooooooooooOOOOooooOOOO....",
"....OOOOooooooooXXXXXXXXooooooooooooooooooooooooOOOOooooOOOO....",
"....OOOOooooooooXXXXXXXXooooooooooooooooooooooooOOOOooooOOOO....",
"....OOOOooooooooXXXXXXXXooooooooooooooooooooooooOOOOooooOOOO....",
"....XXXXooooooooXXXXXXXXooooOOOOOOOOooooooooooooooooooooXXXX....",
"....XXXXooooooooXXXXXXXXooooOOOOOOOOooooooooooooooooooooXXXX....",
"....XXXXooooooooXXXXXXXXooooOOOOOOOOooooooooooooooooooooXXXX....",
"....XXXXooooooooXXXXXXXXooooOOOOOOOOooooooooooooooooooooXXXX....",
"....XXXXooooooooooooooooooooOOOOOOOOooooooooooooooooooooXXXX....",
"....XXXXooooooooooooooooooooOOOOOOOOooooooooooooooooooooXXXX....",
"....XXXXooooooooooooooooooooOOOOOOOOooooooooooooooooooooXXXX....",
"....XXXXooooooooooooooooooooOOOOOOOOooooooooooooooooooooXXXX....",
"....XXXXooooXXXXooooooooooooooooooooooooooooooooooooXXXXXXXX....",
"....XXXXooooXXXXooooooooooooooooooooooooooooooooooooXXXXXXXX....",
"....XXXXooooXXXXooooooooooooooooooooooooooooooooooooXXXXXXXX....",
"....XXXXooooXXXXooooooooooooooooooooooooooooooooooooXXXXXXXX....",
"....XXXXooooooooooooooooooooooooooooXXXXXXXXooooooooooooXXXX....",
"....XXXXooooooooooooooooooooooooooooXXXXXXXXooooooooooooXXXX....",
"....XXXXooooooooooooooooooooooooooooXXXXXXXXooooooooooooXXXX....",
"....XXXXooooooooooooooooooooooooooooXXXXXXXXooooooooooooXXXX....",
"....XXXXooooooooXXXXXXXXooooooooooooXXXXXXXXooooXXXXooooXXXX....",
"....XXXXooooooooXXXXXXXXooooooooooooXXXXXXXXooooXXXXooooXXXX....",
"....XXXXooooooooXXXXXXXXooooooooooooXXXXXXXXooooXXXXooooXXXX....",
"....XXXXooooooooXXXXXXXXooooooooooooXXXXXXXXooooXXXXooooXXXX....",
"....XXXXooooooooXXXXXXXXooooooooooooooooooooooooooooooooXXXX....",
"....XXXXooooooooXXXXXXXXooooooooooooooooooooooooooooooooXXXX....",
"....XXXXooooooooXXXXXXXXooooooooooooooooooooooooooooooooXXXX....",
"....XXXXooooooooXXXXXXXXooooooooooooooooooooooooooooooooXXXX....",
"    ....XXXXXXXXXXXXXXXXXXXXXXXXXXXXXXXXXXXXXXXXXXXXXXXX....    ",
"    ....XXXXXXXXXXXXXXXXXXXXXXXXXXXXXXXXXXXXXXXXXXXXXXXX....    ",
"    ....XXXXXXXXXXXXXXXXXXXXXXXXXXXXXXXXXXXXXXXXXXXXXXXX....    ",
"    ....XXXXXXXXXXXXXXXXXXXXXXXXXXXXXXXXXXXXXXXXXXXXXXXX....    ",
"        ................................................        ",
"        ................................................        ",
"        ................................................        ",
"        ................................................        "
};
