/* XPM */
static char *_ac6cc6bbeb04d2dfde49688872dc53cwklqidOMszhRjz1y[] = {
/* columns rows colors chars-per-pixel */
"72 66 8 1 ",
"  c None",
". c #213038",
"X c #437DA0",
"o c #4D92BC",
"O c #9A2890",
"+ c white",
"@ c #D8B78F",
"# c #FFD7A8",
/* pixels */
"                                                                        ",
"                                                                        ",
"                                                                        ",
"                                                                        ",
"                                                                        ",
"                                                                        ",
"                  .................................                     ",
"                  .................................                     ",
"                  .................................                     ",
"               ......XXXXXXXXX...oooooooooooooooooo...                  ",
"               ......XXXXXXXXX...oooooooooooooooooo...                  ",
"               ......XXXXXXXXX...oooooooooooooooooo...                  ",
"            ...OOO...XXX+++...+++XXXoooooooooooooooooo...               ",
"            ...OOO...XXX+++...+++XXXoooooooooooooooooo...               ",
"            ...OOO...XXX+++...+++XXXoooooooooooooooooo...               ",
"            ...OOO...XXX+++...+++XXXooo...ooooooooo......               ",
"            ...OOO...XXX+++...+++XXXooo...ooooooooo......               ",
"            ...OOO...XXX+++...+++XXXooo...ooooooooo......               ",
"            .........XXX+++...+++XXXoooooooooooooooooo...               ",
"            .........XXX+++...+++XXXoooooooooooooooooo...               ",
"            .........XXX+++...+++XXXoooooooooooooooooo...               ",
"               ...OOO...XXXXXXXXXXXXoooooooooooooooooo...               ",
"               ...OOO...XXXXXXXXXXXXoooooooooooooooooo...               ",
"               ...OOO...XXXXXXXXXXXXoooooooooooooooooo...               ",
"               ...OOO...XXXXXXXXXXXXoooooooooooooooooo...               ",
"               ...OOO...XXXXXXXXXXXXoooooooooooooooooo...               ",
"               ...OOO...XXXXXXXXXXXXoooooooooooooooooo...               ",
"               .........XXXXXXXXXXXXXXXooo...............               ",
"               .........XXXXXXXXXXXXXXXooo...............               ",
"               .........XXXXXXXXXXXXXXXooo...............               ",
"                     ......XXXXXXoooooooooooo...                        ",
"                     ......XXXXXXoooooooooooo...                        ",
"                     ......XXXXXXoooooooooooo...                        ",
"                        ...XXX@@@############...                        ",
"                        ...XXX@@@############...                        ",
"                        ...XXX@@@############...                        ",
"                  .........XXX@@@############...                        ",
"                  .........XXX@@@############...                        ",
"                  .........XXX@@@############...                        ",
"                  ...ooooooXXX@@@############...                        ",
"                  ...ooooooXXX@@@############...                        ",
"                  ...ooooooXXX@@@############...                        ",
"                  ......XXXXXXXXXooo@@@@@@ooo...                        ",
"                  ......XXXXXXXXXooo@@@@@@ooo...                        ",
"                  ......XXXXXXXXXooo@@@@@@ooo...                        ",
"                     ......XXXooooooooooooooo...                        ",
"                     ......XXXooooooooooooooo...                        ",
"                     ......XXXooooooooooooooo...                        ",
"                        ...XXXooo......XXXooo...                        ",
"                        ...XXXooo......XXXooo...                        ",
"                        ...XXXooo......XXXooo...                        ",
"                        ...XXX...   ...XXX...                           ",
"                        ...XXX...   ...XXX...                           ",
"                        ...XXX...   ...XXX...                           ",
"                        ......      ......                              ",
"                        ......      ......                              ",
"                        ......      ......                              ",
"                                                                        ",
"                                                                        ",
"                                                                        ",
"                                                                        ",
"                                                                        ",
"                                                                        ",
"                                                                        ",
"                                                                        ",
"                                                                        "
};
