/* XPM */
static char *fea886741ccf40eeac3db1c732b29016o5A4ya9iy4vj8UOv[] = {
/* columns rows colors chars-per-pixel */
"64 64 12 1 ",
"  c None",
". c #0E0D0E",
"X c #351424",
"o c #0A7030",
"O c #7C776F",
"+ c #D2202C",
"@ c #864646",
"# c #B56B5F",
"$ c #EBA724",
"% c #B3AAA1",
"& c #E7B09C",
"* c #EADFD1",
/* pixels */
"        XXXXXXXXXXXXXXXXXXXXXXXXXXXXXXXXXXXXXXXXXXXXXXXX        ",
"        XXXXXXXXXXXXXXXXXXXXXXXXXXXXXXXXXXXXXXXXXXXXXXXX        ",
"        XXXXXXXXXXXXXXXXXXXXXXXXXXXXXXXXXXXXXXXXXXXXXXXX        ",
"        XXXXXXXXXXXXXXXXXXXXXXXXXXXXXXXXXXXXXXXXXXXXXXXX        ",
"    XXXX&&&&&&&&&&&&&&&&&&&&&&&&&&&&&&&&&&&&&&&&&&&&&&&&XXXX    ",
"    XXXX&&&&&&&&&&&&&&&&&&&&&&&&&&&&&&&&&&&&&&&&&&&&&&&&XXXX    ",
"    XXXX&&&&&&&&&&&&&&&&&&&&&&&&&&&&&&&&&&&&&&&&&&&&&&&&XXXX    ",
"    XXXX&&&&&&&&&&&&&&&&&&&&&&&&&&&&&&&&&&&&&&&&&&&&&&&&XXXX    ",
"XXXX&&&&&&&&&&&&####&&&&&&&&&&&&################&&&&&&&&&&&&XXXX",
"XXXX&&&&&&&&&&&&####&&&&&&&&&&&&################&&&&&&&&&&&&XXXX",
"XXXX&&&&&&&&&&&&####&&&&&&&&&&&&################&&&&&&&&&&&&XXXX",
"XXXX&&&&&&&&&&&&####&&&&&&&&&&&&################&&&&&&&&&&&&XXXX",
"XXXX&&&&&&&&########&&&&&&&&&&&&####################&&&&&&&&XXXX",
"XXXX&&&&&&&&########&&&&&&&&&&&&####################&&&&&&&&XXXX",
"XXXX&&&&&&&&########&&&&&&&&&&&&####################&&&&&&&&XXXX",
"XXXX&&&&&&&&########&&&&&&&&&&&&####################&&&&&&&&XXXX",
"XXXX&&&&############&&&&&&&&&&&&####&&&&&&&&############&&&&XXXX",
"XXXX&&&&############&&&&&&&&&&&&####&&&&&&&&############&&&&XXXX",
"XXXX&&&&############..............##&&&&&&&&############&&&&XXXX",
"XXXX&&&&############..............##&&&&&&&&############&&&&XXXX",
"XXXX&&&&####&&&&##....++++++++++....&&&&&&&&############&&&&XXXX",
"XXXX&&&&####&&&&##....++++++++++....&&&&&&&&############&&&&XXXX",
"XXXX&&&&####&&&&##..++....++++++++..&&&&&&&&############&&&&XXXX",
"XXXX&&&&####&&&&##..++....++++++++..&&&&&&&&############&&&&XXXX",
"XXXX&&&&##########..........++++..........##############&&&&XXXX",
"XXXX&&&&##########..........++++..........##############&&&&XXXX",
"XXXX&&&&##############..******OOOOOOOOOO..##############&&&&XXXX",
"XXXX&&&&##############..******OOOOOOOOOO..##############&&&&XXXX",
"XXXX&&&&########@@@@@@..**..................####&&&&####&&&&XXXX",
"XXXX&&&&########@@@@@@..**..................####&&&&####&&&&XXXX",
"XXXX&&&&########@@@@@@..OO..******%%%%%%%%..####&&&&####&&&&XXXX",
"XXXX&&&&########@@@@@@..OO..******%%%%%%%%..####&&&&####&&&&XXXX",
"XXXX@@@@########@@@@@@..OO..**..%%..%%..%%..############@@@@XXXX",
"XXXX@@@@########@@@@@@..OO..**..%%..%%..%%..############@@@@XXXX",
"XXXX@@@@########@@@@@@..OO..%%..%%..%%..%%..############@@@@XXXX",
"XXXX@@@@########@@@@@@..OO..%%..%%..%%..%%..############@@@@XXXX",
"XXXX@@@@##############..OO..%%..%%..%%..%%..############@@@@XXXX",
"XXXX@@@@##############..OO..%%..%%..%%..%%..############@@@@XXXX",
"XXXX@@@@##############..OO..%%%%%%%%%%%%%%..############@@@@XXXX",
"XXXX@@@@##############..OO..%%%%%%%%%%%%%%..############@@@@XXXX",
"XXXX@@@@####@@@@####........................########@@@@@@@@XXXX",
"XXXX@@@@####@@@@####........................########@@@@@@@@XXXX",
"XXXX@@@@####@@@@####..oooooo$$$$$$$$$$$$..##########@@@@@@@@XXXX",
"XXXX@@@@####@@@@####..oooooo$$$$$$$$$$$$..##########@@@@@@@@XXXX",
"XXXX@@@@############..oooooo$$............@@############@@@@XXXX",
"XXXX@@@@############..oooooo$$............@@############@@@@XXXX",
"XXXX@@@@############..oooooo$$..OOOOOOOO..@@############@@@@XXXX",
"XXXX@@@@############..oooooo$$..OOOOOOOO..@@############@@@@XXXX",
"XXXX@@@@########@@@@..oooooo$$..OOOOOOOO..@@####@@@@####@@@@XXXX",
"XXXX@@@@########@@@@..oooooo$$..OOOOOOOO..@@####@@@@####@@@@XXXX",
"XXXX@@@@########@@@@..oooooo$$......%%%%..@@####@@@@####@@@@XXXX",
"XXXX@@@@########@@@@..oooooo$$......%%%%..@@####@@@@####@@@@XXXX",
"XXXX@@@@########@@@@..$$$$$$$$......%%....##############@@@@XXXX",
"XXXX@@@@########@@@@..$$$$$$$$......%%....##############@@@@XXXX",
"XXXX@@@@########@@@@............##......################@@@@XXXX",
"XXXX@@@@########@@@@............##......################@@@@XXXX",
"    XXXX@@@@@@@@@@@@@@@@@@@@@@@@@@@@@@@@@@@@@@@@@@@@@@@@XXXX    ",
"    XXXX@@@@@@@@@@@@@@@@@@@@@@@@@@@@@@@@@@@@@@@@@@@@@@@@XXXX    ",
"    XXXX@@@@@@@@@@@@@@@@@@@@@@@@@@@@@@@@@@@@@@@@@@@@@@@@XXXX    ",
"    XXXX@@@@@@@@@@@@@@@@@@@@@@@@@@@@@@@@@@@@@@@@@@@@@@@@XXXX    ",
"        XXXXXXXXXXXXXXXXXXXXXXXXXXXXXXXXXXXXXXXXXXXXXXXX        ",
"        XXXXXXXXXXXXXXXXXXXXXXXXXXXXXXXXXXXXXXXXXXXXXXXX        ",
"        XXXXXXXXXXXXXXXXXXXXXXXXXXXXXXXXXXXXXXXXXXXXXXXX        ",
"        XXXXXXXXXXXXXXXXXXXXXXXXXXXXXXXXXXXXXXXXXXXXXXXX        "
};
