/* XPM */
static char *_b24ad5d865d41af949e5b303eade65cYGadlOb68VijktT0[] = {
/* columns rows colors chars-per-pixel */
"27 29 52 1 ",
"  c None",
". c gray13",
"X c #FDD5B5",
"o c #D78C77",
"O c #E6B4A0",
"+ c #FBD2B3",
"@ c white",
"# c black",
"$ c #2C2227",
"% c #FDD7B6",
"& c #FED8B7",
"* c #EB9486",
"= c #FEF5E6",
"- c #FDF4E4",
"; c #FBD3B1",
": c #FEF4E8",
"> c #EAC6C2",
", c #E3BAAD",
"< c #E2B8AF",
"1 c #E1B5AD",
"2 c #DFB3AB",
"3 c #DCB2AA",
"4 c #DBB1A6",
"5 c #DEB5A8",
"6 c #E1B8AA",
"7 c #F1B29E",
"8 c #FEF7EC",
"9 c #EDAF97",
"0 c #FDF6E9",
"q c #FFF8E4",
"w c #FDF7E7",
"e c #FAF3E5",
"r c #FDF9E8",
"t c #FBF4E6",
"y c #FAF6E8",
"u c #FBF4E8",
"i c #FDF8EA",
"p c #FDF6EB",
"a c #FEF8E6",
"s c #F9F4EA",
"d c #F9F5E6",
"f c #FAF5EC",
"g c #FAF6EA",
"h c #FBF2E7",
"j c #FBF8F0",
"k c #FEF9EF",
"l c #FDF8EE",
"z c #FEF7EA",
"x c #FCF6ED",
"c c #FEF8F3",
"v c #FDF3E6",
"b c #FEF7EE",
/* pixels */
"                           ",
"     ..          ..        ",
"    .X...........X.        ",
"    .oX.XXOXOXX.Xoo.       ",
"    .oX.XXOXOXX.Xoo.       ",
"    .oXXXXOXOXXXXXo.       ",
"    .XXXXXXXOXXXXXo.       ",
"    .XXXX++XXXXXXXX.       ",
"   .XXXXXXXXXXXXXXX.       ",
"   .XXX@#XXXXX@#XXX.       ",
"   $XXX##XX#XX##%&X.       ",
"   .X**=--#=#-==**;.       ",
"    .**=-----===**=.       ",
"    .=============.        ",
"     .=:=========.         ",
"      .>=======,.       .. ",
"      .=<123456=.      .OO.",
"      .=========7.     .OO.",
"     .========8=9O.    .OO.",
"     .===0000====O.    .q. ",
"     .=========w=O.   .qO. ",
"     .===e.====O==..  .rO. ",
"     .===t.===yO==rr..rO.  ",
"  ....O==u.=ip....Or.raO.  ",
" .sddd.==f.=g.hjklOr.rOO.  ",
" .Ozdd.==x.=i.O=iiOOrOO.   ",
" .OOdd.c==.=i.OOvbOOOO.    ",
"  .OOd.OOO.=0.OOOOO...     ",
"   ................        "
};
